<svg height="512" viewBox="0 0 64 64" width="512" xmlns="http://www.w3.org/2000/svg"><g id="people-coronavirus-mask-protect-covid19"><path d="m35 13h-14a4 4 0 0 0 -4 4v9a11 11 0 0 0 22 0v-9a4 4 0 0 0 -4-4z" fill="#ffa791"/><path d="m34 3h-8a4 4 0 0 0 -4 4 2 2 0 0 0 -2-2h-2a4 4 0 0 0 -4 4v13h3v-5a4 4 0 0 1 4-4h14a4 4 0 0 1 4 4v5h3v-11a8 8 0 0 0 -8-8z" fill="#58595b"/><path d="m34 3h-8a4 4 0 0 0 -4 4v6h13a4 4 0 0 1 4 4v5h3v-11a8 8 0 0 0 -8-8z" fill="#4f5052"/><path d="m52.081 51.806a12 12 0 0 0 -11.941-10.806h-5.14c-.027 0-.053-.007-.08-.008v.008a6.991 6.991 0 0 1 -13.84 0v-.008c-.027 0-.053.008-.08.008h-5.14a12 12 0 0 0 -11.941 10.806l-.919 9.194h46.685a3 3 0 0 0 2.985-3.3z" fill="#004fac"/><path d="m16 52a1 1 0 0 1 1 1v8a0 0 0 0 1 0 0h-2a0 0 0 0 1 0 0v-8a1 1 0 0 1 1-1z" fill="#003f8a"/><path d="m39 52h2a0 0 0 0 1 0 0v8a1 1 0 0 1 -1 1 1 1 0 0 1 -1-1v-8a0 0 0 0 1 0 0z" fill="#003f8a" transform="matrix(-1 0 0 -1 80 113)"/><path d="m33 35.778a10.84 10.84 0 0 1 -10 0v3.222a2 2 0 0 1 -1.92 1.992v.008a6.991 6.991 0 0 0 13.84 0v-.008a2 2 0 0 1 -1.92-1.992z" fill="#ffa791"/><path d="m15 57v4h-12l.4-4z" fill="#d80027"/><path d="m41 57v4h8.685a3 3 0 0 0 2.985-3.3l-.07-.7z" fill="#d80027"/><g fill="#0b7"><circle cx="50" cy="43" r="1"/><path d="m45.757 44.343a1 1 0 1 0 0 1.414 1 1 0 0 0 0-1.414z"/><circle cx="43" cy="50" r="1"/><path d="m44.343 54.243a1 1 0 1 0 1.414 0 1 1 0 0 0 -1.414 0z"/><circle cx="50" cy="57" r="1"/><path d="m54.243 55.657a1 1 0 1 0 0-1.414 1 1 0 0 0 0 1.414z"/><circle cx="57" cy="50" r="1"/><path d="m55.657 45.757a1 1 0 1 0 -1.414 0 1 1 0 0 0 1.414 0z"/></g><path d="m33 37.778v-2a10.84 10.84 0 0 1 -10 0v2a10.84 10.84 0 0 0 10 0z" fill="#ff9478"/><path d="m41 21h-2v5a10.98 10.98 0 0 1 -.188 2h2.188a2 2 0 0 0 2-2v-3a2 2 0 0 0 -2-2z" fill="#ff9478"/><path d="m15 21h2v5a10.98 10.98 0 0 0 .188 2h-2.188a2 2 0 0 1 -2-2v-3a2 2 0 0 1 2-2z" fill="#ff9478"/><circle cx="50" cy="50" fill="#ffcd00" r="11"/><path d="m50 39a11.07 11.07 0 0 0 -2 .19 10.992 10.992 0 0 1 0 21.62 11 11 0 1 0 2-21.81z" fill="#ebbf00"/><circle cx="50" cy="50" fill="#d51920" r="3"/><path d="m24 18a1 1 0 0 0 -1 1v1a1 1 0 0 0 2 0v-1a1 1 0 0 0 -1-1z" fill="#58595b"/><path d="m32 18a1 1 0 0 0 -1 1v1a1 1 0 0 0 2 0v-1a1 1 0 0 0 -1-1z" fill="#58595b"/><path d="m35.769 27.64 3.231-4.524v-2.116-1.316l-4.769 6.676z" fill="#f1f2f2"/><path d="m21.768 26.36-4.768-6.675v1.315 2.115l3.232 4.525z" fill="#f1f2f2"/><path d="m57 48a1.993 1.993 0 0 0 -1.722 1h-1.42a3.915 3.915 0 0 0 -.425-1.019l1.006-1.006a2.015 2.015 0 0 0 .51.074 2.006 2.006 0 1 0 -1.923-1.489l-1.007 1.007a3.915 3.915 0 0 0 -1.019-.425v-1.42a2 2 0 1 0 -2 0v1.42a3.915 3.915 0 0 0 -1.019.425l-1.006-1.007a2 2 0 0 0 -.509-1.923 2 2 0 1 0 -1.415 3.413 2.022 2.022 0 0 0 .511-.074l1.006 1.006a3.915 3.915 0 0 0 -.426 1.018h-1.42a2 2 0 1 0 0 2h1.42a3.915 3.915 0 0 0 .425 1.019l-1.006 1.006a2 2 0 1 0 1.413 1.415l1.007-1.007a3.915 3.915 0 0 0 1.019.425v1.42a2 2 0 1 0 2 0v-1.42a3.915 3.915 0 0 0 1.019-.425l1.006 1.007a2 2 0 0 0 .509 1.923 2 2 0 1 0 .9-3.339l-1.006-1.006a3.915 3.915 0 0 0 .43-1.018h1.42a2 2 0 1 0 1.722-3zm-7 4a2 2 0 1 1 2-2 2 2 0 0 1 -2 2z" fill="#ed1c24"/><path d="m29.06 21.662a2 2 0 0 0 -2.12 0l-6.94 4.338v7.534a10.966 10.966 0 0 0 16 0v-7.534z" fill="#57a4ff"/><path d="m33 24.125v3.451a5.944 5.944 0 0 1 -3.383 5.405 10.9 10.9 0 0 1 -9.617-.2v.756a10.966 10.966 0 0 0 16 0v-7.537z" fill="#2488ff"/></g></svg>