<svg height="512" viewBox="0 0 64 64" width="512" xmlns="http://www.w3.org/2000/svg"><g id="virus-covid19-coronavirus-breath-tempurature"><path d="m52.081 51.806a12 12 0 0 0 -11.941-10.806h-5.14c-.027 0-.053-.007-.08-.008v.008a6.991 6.991 0 0 1 -13.84 0v-.008c-.027 0-.053.008-.08.008h-5.14a12 12 0 0 0 -11.941 10.806l-.919 9.194h50z" fill="#004fac"/><path d="m41 57v4h12l-.4-4z" fill="#d80027"/><path d="m52.081 51.806a12 12 0 0 0 -11.941-10.806h-2a12 12 0 0 1 11.941 10.806l.919 9.194h2z" fill="#00479b"/><path d="m52.6 57h-2l.4 4h2z" fill="#c20023"/><path d="m33 35.778a10.84 10.84 0 0 1 -10 0v3.222a2 2 0 0 1 -1.92 1.992v.008a6.991 6.991 0 0 0 13.84 0v-.008a2 2 0 0 1 -1.92-1.992z" fill="#ffa791"/><path d="m15 57v4h-12l.4-4z" fill="#d80027"/><path d="m35 13h-14a4 4 0 0 0 -4 4v9a11 11 0 0 0 22 0v-9a4 4 0 0 0 -4-4z" fill="#ffa791"/><path d="m61 51a6 6 0 1 1 -9-5.19v-21.81a3 3 0 0 1 6 0v21.81a5.985 5.985 0 0 1 3 5.19z" fill="#ff9811"/><path d="m58 45.81v-21.81a2.973 2.973 0 0 0 -4-2.816 2.963 2.963 0 0 1 2 2.816v21.81a5.991 5.991 0 0 1 -2 11.1 5.993 5.993 0 0 0 4-11.1z" fill="#ee8700"/><circle cx="55" cy="51" fill="#ab2300" r="2"/><path d="m44 33a2 2 0 0 0 4 0c0-1.105-2-4-2-4s-2 2.9-2 4z" fill="#2488ff"/><path d="m7.586 4.757a2 2 0 0 0 -2.829 2.829c.781.781 4.243 1.414 4.243 1.414s-.633-3.462-1.414-4.243z" fill="#57a4ff"/><path d="m34 3h-8a4 4 0 0 0 -4 4 2 2 0 0 0 -2-2h-2a4 4 0 0 0 -4 4v13h3v-5a4 4 0 0 1 4-4h14a4 4 0 0 1 4 4v5h3v-11a8 8 0 0 0 -8-8z" fill="#58595b"/><path d="m34 3h-8a4 4 0 0 0 -4 4v6h13a4 4 0 0 1 4 4v5h3v-11a8 8 0 0 0 -8-8z" fill="#4f5052"/><path d="m33 37.778v-2a10.84 10.84 0 0 1 -10 0v2a10.84 10.84 0 0 0 10 0z" fill="#ff9478"/><path d="m41 21h-2v5a10.98 10.98 0 0 1 -.188 2h2.188a2 2 0 0 0 2-2v-3a2 2 0 0 0 -2-2z" fill="#ff9478"/><path d="m15 21h2v5a10.98 10.98 0 0 0 .188 2h-2.188a2 2 0 0 1 -2-2v-3a2 2 0 0 1 2-2z" fill="#ff9478"/><path d="m25.447 21.9a1 1 0 0 0 .26-1.6l-2-2a1 1 0 0 0 -1.414 1.414l1.019 1.019-.759.379a1 1 0 0 0 .894 1.79z" fill="#58595b"/><path d="m30.553 21.9 2 1a1 1 0 1 0 .894-1.79l-.759-.379 1.019-1.019a1 1 0 0 0 -1.414-1.414l-2 2a1 1 0 0 0 .26 1.6z" fill="#58595b"/><path d="m29.8 29.6 1.6 1.2a1 1 0 0 0 1.2-1.6l-1.6-1.2a5.03 5.03 0 0 0 -6 0l-1.6 1.2a1 1 0 0 0 1.2 1.6l1.6-1.2a3.018 3.018 0 0 1 3.6 0z" fill="#58595b"/><path d="m16 52a1 1 0 0 1 1 1v8a0 0 0 0 1 0 0h-2a0 0 0 0 1 0 0v-8a1 1 0 0 1 1-1z" fill="#003f8a"/><path d="m39 52h2a0 0 0 0 1 0 0v8a1 1 0 0 1 -1 1 1 1 0 0 1 -1-1v-8a0 0 0 0 1 0 0z" fill="#003f8a" transform="matrix(-1 0 0 -1 80 113)"/><path d="m56 48.184v-23.184a1 1 0 0 0 -2 0v23.184a3 3 0 1 0 2 0zm-1 3.816a1 1 0 1 1 1-1 1 1 0 0 1 -1 1z" fill="#ed1c24"/><g fill="#ff5023"><path d="m10 25a1 1 0 0 0 -2 0c0 .561-.217.8-.707 1.291a3.479 3.479 0 0 0 0 5.413c.49.49.707.731.707 1.294s-.217.8-.707 1.294a3.565 3.565 0 0 0 -1.293 2.708 1 1 0 0 0 2 0c0-.562.217-.8.707-1.294a3.482 3.482 0 0 0 0-5.416c-.49-.49-.707-.732-.707-1.29s.217-.8.707-1.29a3.562 3.562 0 0 0 1.293-2.71z"/><path d="m2 26a1 1 0 0 0 2 0c0-.562.217-.8.707-1.294a3.482 3.482 0 0 0 0-5.416c-.49-.49-.707-.732-.707-1.29s.217-.8.707-1.29a3.562 3.562 0 0 0 1.293-2.71 1 1 0 0 0 -2 0c0 .561-.217.8-.707 1.291a3.479 3.479 0 0 0 0 5.413c.49.49.707.731.707 1.294s-.217.8-.707 1.294a3.565 3.565 0 0 0 -1.293 2.708z"/><path d="m45 20a3.565 3.565 0 0 0 1.293 2.708c.49.491.707.732.707 1.294a1 1 0 0 0 2 0 3.565 3.565 0 0 0 -1.293-2.708c-.49-.494-.707-.733-.707-1.294s.217-.8.707-1.294a3.479 3.479 0 0 0 0-5.413c-.49-.493-.707-.732-.707-1.293a1 1 0 0 0 -2 0 3.562 3.562 0 0 0 1.293 2.706c.49.489.707.729.707 1.29s-.217.8-.707 1.294a3.563 3.563 0 0 0 -1.293 2.71z"/><path d="m51 11a3.565 3.565 0 0 0 1.293 2.708c.49.491.707.732.707 1.294a1 1 0 0 0 2 0 3.565 3.565 0 0 0 -1.293-2.708c-.49-.494-.707-.733-.707-1.294s.217-.8.707-1.294a3.567 3.567 0 0 0 1.293-2.706 3.56 3.56 0 0 0 -1.293-2.7c-.49-.5-.707-.739-.707-1.3a1 1 0 0 0 -2 0 3.562 3.562 0 0 0 1.293 2.706c.49.494.707.729.707 1.294s-.217.8-.707 1.294a3.563 3.563 0 0 0 -1.293 2.706z"/></g></g></svg>