<svg height="512" viewBox="0 0 64 64" width="512" xmlns="http://www.w3.org/2000/svg"><g id="virus-covid19-corona-lung-breath"><path d="m61 61h-9l-2-17-2 17h-32l-2-17-2 17h-9l3.06-19.93a12.748 12.748 0 0 1 7.46-9.97h.01a12.648 12.648 0 0 1 5.18-1.1h6.29a2.006 2.006 0 0 0 2-2v-5h-3v-6h-3l2.51-7.14v-.01a10 10 0 1 1 13.49 12.31v5.84a2.006 2.006 0 0 0 2 2h6.29a12.648 12.648 0 0 1 5.18 1.1h.01a12.748 12.748 0 0 1 7.46 9.97z" fill="#ffbcab"/><path d="m32.26 3.08a10 10 0 0 1 2.74 19.08v5.84a2.006 2.006 0 0 0 2 2h2a2.006 2.006 0 0 1 -2-2v-5.84a10 10 0 0 0 -2.74-19.08 10.147 10.147 0 0 0 -2.249-.02c.083.009.165.01.249.02z" fill="#ff9478"/><path d="m11.723 47.219-1.723 13.781h2l2-17a4.179 4.179 0 0 0 -2.277 3.219z" fill="#ff9478"/><path d="m57.94 41.07a12.748 12.748 0 0 0 -7.46-9.97h-.01a12.648 12.648 0 0 0 -5.18-1.1h-2a12.648 12.648 0 0 1 5.18 1.1h.01a12.748 12.748 0 0 1 7.46 9.97l3.06 19.93h2z" fill="#ff9478"/><path d="m47.723 47.219-1.723 13.781h2l2-17a4.179 4.179 0 0 0 -2.277 3.219z" fill="#ff9478"/><path d="m36.606 42.652a1.839 1.839 0 0 1 1.394 1.785v.01a1.84 1.84 0 0 1 -2.422 1.746l-1.578-.526v2.563a7.991 7.991 0 0 0 5.47 7.59l1.27.43a4 4 0 0 0 5.26-3.8v-6.78a10 10 0 0 0 -6.15-9.23l-.31-.13a4 4 0 0 0 -5.54 3.69v2z" fill="none"/><path d="m26 44.447v-.01a1.839 1.839 0 0 1 1.394-1.785l2.606-.652v-2a4 4 0 0 0 -5.54-3.69l-.31.13a10 10 0 0 0 -6.15 9.23v6.78a4 4 0 0 0 5.26 3.8l1.27-.43a7.991 7.991 0 0 0 5.47-7.59v-2.563l-1.578.526a1.84 1.84 0 0 1 -2.422-1.746z" fill="none"/><path d="m30 48.23a7.991 7.991 0 0 1 -5.47 7.59l-1.27.43a4 4 0 0 1 -5.26-3.8v-6.78a10 10 0 0 1 6.15-9.23l.31-.13a4 4 0 0 1 5.54 3.69z" fill="#ff6243"/><path d="m25 36.13a3.993 3.993 0 0 1 3 3.87v8.23a7.991 7.991 0 0 1 -5.47 7.59l-1.27.43c-.09.03-.18.049-.27.072a3.963 3.963 0 0 0 2.27-.072l1.27-.43a7.991 7.991 0 0 0 5.47-7.59v-8.23a4 4 0 0 0 -5-3.87z" fill="#ff5023"/><path d="m46 45.67v6.78a4 4 0 0 1 -5.26 3.8l-1.27-.43a7.991 7.991 0 0 1 -5.47-7.59v-8.23a4 4 0 0 1 5.54-3.69l.31.13a10 10 0 0 1 6.15 9.23z" fill="#ff6243"/><path d="m39.85 36.44-.31-.13a3.95 3.95 0 0 0 -2.54-.18 3.976 3.976 0 0 1 .54.18l.31.13a10 10 0 0 1 6.15 9.23v6.78a4 4 0 0 1 -2.99 3.872 4 4 0 0 0 4.99-3.872v-6.78a10 10 0 0 0 -6.15-9.23z" fill="#ff5023"/><path d="m24 23h3z" fill="#0b7"/><g fill="#d51920"><circle cx="49" cy="7" r="2"/><circle cx="57" cy="15" r="2"/><circle cx="49" cy="23" r="2"/><circle cx="15" cy="23" r="2"/><circle cx="7" cy="15" r="2"/><circle cx="15" cy="7" r="2"/></g><path d="m38 44.44v.01a1.837 1.837 0 0 1 -2.42 1.74l-1.58-.52-2-.67-2 .67-1.58.52a1.837 1.837 0 0 1 -2.42-1.74v-.01a1.841 1.841 0 0 1 1.39-1.79l2.61-.65v-18a1 1 0 0 0 -1-1h-5v-6h6a4 4 0 0 1 4 4v21l2.61.65a1.841 1.841 0 0 1 1.39 1.79z" fill="#ff9811"/><path d="m32 36a1 1 0 0 0 1-1v-2a1 1 0 0 0 -2 0v2a1 1 0 0 0 1 1z" fill="#ed1c24"/><path d="m32 28a1 1 0 0 0 1-1v-1a1 1 0 0 0 -2 0v1a1 1 0 0 0 1 1z" fill="#ed1c24"/><path d="m29 19h-1a1 1 0 0 0 0 2h1a1 1 0 0 0 0-2z" fill="#ed1c24"/><path d="m41 42v1a1 1 0 0 0 2 0v-1a1 1 0 0 0 -2 0z" fill="#ab2300"/><circle cx="41" cy="47" fill="#cd2a00" r="2"/><circle cx="25" cy="50" fill="#cd2a00" r="2"/><path d="m22 46h-1a1 1 0 0 0 0 2h1a1 1 0 0 0 0-2z" fill="#ab2300"/><path d="m41 50h-1a1 1 0 0 0 0 2h1a1 1 0 0 0 0-2z" fill="#ab2300"/><path d="m22 44a1 1 0 0 0 1-1v-1a1 1 0 0 0 -2 0v1a1 1 0 0 0 1 1z" fill="#ab2300"/><path d="m25 40h1a1 1 0 0 0 0-2h-1a1 1 0 0 0 0 2z" fill="#ab2300"/><path d="m40 39a1 1 0 0 0 -1-1h-1a1 1 0 0 0 0 2h1a1 1 0 0 0 1-1z" fill="#ab2300"/><path d="m19 24a1 1 0 0 0 0-2h-1.184a2.746 2.746 0 0 0 -.117-.285l.836-.837a1 1 0 0 0 -1.414-1.414l-.836.837a2.746 2.746 0 0 0 -.285-.117v-1.184a1 1 0 0 0 -2 0v1.184a2.746 2.746 0 0 0 -.285.117l-.836-.837a1 1 0 0 0 -1.414 1.414l.836.837a2.746 2.746 0 0 0 -.117.285h-1.184a1 1 0 0 0 0 2h1.184a2.746 2.746 0 0 0 .117.285l-.836.837a1 1 0 1 0 1.414 1.414l.836-.837a2.746 2.746 0 0 0 .285.117v1.184a1 1 0 0 0 2 0v-1.184a2.746 2.746 0 0 0 .285-.117l.836.837a1 1 0 0 0 1.414-1.414l-.836-.837a2.746 2.746 0 0 0 .117-.285zm-5-1a1 1 0 1 1 1 1 1 1 0 0 1 -1-1z" fill="#ed1c24"/><path d="m3 16h1.184a2.746 2.746 0 0 0 .117.285l-.836.837a1 1 0 1 0 1.414 1.414l.836-.837a2.746 2.746 0 0 0 .285.117v1.184a1 1 0 0 0 2 0v-1.184a2.746 2.746 0 0 0 .285-.117l.836.837a1 1 0 0 0 1.414-1.414l-.835-.837a2.746 2.746 0 0 0 .116-.285h1.184a1 1 0 0 0 0-2h-1.184a2.746 2.746 0 0 0 -.117-.285l.836-.837a1 1 0 0 0 -1.414-1.414l-.836.837a2.746 2.746 0 0 0 -.285-.117v-1.184a1 1 0 0 0 -2 0v1.184a2.746 2.746 0 0 0 -.285.117l-.836-.837a1 1 0 1 0 -1.414 1.414l.836.837a2.746 2.746 0 0 0 -.117.285h-1.184a1 1 0 0 0 0 2zm5-1a1 1 0 1 1 -1-1 1 1 0 0 1 1 1z" fill="#ed1c24"/><path d="m11 8h1.184a2.746 2.746 0 0 0 .117.285l-.836.837a1 1 0 1 0 1.414 1.414l.836-.837a2.746 2.746 0 0 0 .285.117v1.184a1 1 0 0 0 2 0v-1.184a2.746 2.746 0 0 0 .285-.117l.836.837a1 1 0 1 0 1.414-1.414l-.835-.837a2.746 2.746 0 0 0 .116-.285h1.184a1 1 0 0 0 0-2h-1.184a2.746 2.746 0 0 0 -.117-.285l.836-.837a1 1 0 0 0 -1.414-1.414l-.836.837a2.746 2.746 0 0 0 -.285-.117v-1.184a1 1 0 0 0 -2 0v1.184a2.746 2.746 0 0 0 -.285.117l-.836-.837a1 1 0 0 0 -1.414 1.414l.836.837a2.746 2.746 0 0 0 -.117.285h-1.184a1 1 0 0 0 0 2zm5-1a1 1 0 1 1 -1-1 1 1 0 0 1 1 1z" fill="#ed1c24"/><path d="m45 24h1.184a2.746 2.746 0 0 0 .117.285l-.836.837a1 1 0 1 0 1.414 1.414l.836-.837a2.746 2.746 0 0 0 .285.117v1.184a1 1 0 0 0 2 0v-1.184a2.746 2.746 0 0 0 .285-.117l.836.837a1 1 0 1 0 1.414-1.414l-.836-.837a2.746 2.746 0 0 0 .117-.285h1.184a1 1 0 0 0 0-2h-1.184a2.746 2.746 0 0 0 -.117-.285l.836-.837a1 1 0 1 0 -1.414-1.414l-.836.837a2.746 2.746 0 0 0 -.285-.117v-1.184a1 1 0 0 0 -2 0v1.184a2.746 2.746 0 0 0 -.285.117l-.836-.837a1 1 0 1 0 -1.414 1.414l.836.837a2.746 2.746 0 0 0 -.117.285h-1.184a1 1 0 0 0 0 2zm5-1a1 1 0 1 1 -1-1 1 1 0 0 1 1 1z" fill="#ed1c24"/><path d="m53.465 12.878.836.837a2.746 2.746 0 0 0 -.117.285h-1.184a1 1 0 0 0 0 2h1.184a2.746 2.746 0 0 0 .117.285l-.836.837a1 1 0 1 0 1.414 1.414l.836-.837a2.746 2.746 0 0 0 .285.117v1.184a1 1 0 0 0 2 0v-1.184a2.746 2.746 0 0 0 .285-.117l.836.837a1 1 0 1 0 1.414-1.414l-.836-.837a2.746 2.746 0 0 0 .117-.285h1.184a1 1 0 0 0 0-2h-1.184a2.746 2.746 0 0 0 -.117-.285l.836-.837a1 1 0 1 0 -1.414-1.414l-.836.837a2.746 2.746 0 0 0 -.285-.117v-1.184a1 1 0 0 0 -2 0v1.184a2.746 2.746 0 0 0 -.285.117l-.836-.837a1 1 0 1 0 -1.414 1.414zm4.535 2.122a1 1 0 1 1 -1-1 1 1 0 0 1 1 1z" fill="#ed1c24"/><path d="m45 8h1.184a2.746 2.746 0 0 0 .117.285l-.836.837a1 1 0 1 0 1.414 1.414l.836-.837a2.746 2.746 0 0 0 .285.117v1.184a1 1 0 0 0 2 0v-1.184a2.746 2.746 0 0 0 .285-.117l.836.837a1 1 0 1 0 1.414-1.414l-.835-.837a2.746 2.746 0 0 0 .116-.285h1.184a1 1 0 0 0 0-2h-1.184a2.746 2.746 0 0 0 -.117-.285l.836-.837a1 1 0 1 0 -1.414-1.414l-.836.837a2.746 2.746 0 0 0 -.285-.117v-1.184a1 1 0 0 0 -2 0v1.184a2.746 2.746 0 0 0 -.285.117l-.836-.837a1 1 0 1 0 -1.414 1.414l.836.837a2.746 2.746 0 0 0 -.117.285h-1.184a1 1 0 0 0 0 2zm5-1a1 1 0 1 1 -1-1 1 1 0 0 1 1 1z" fill="#ed1c24"/></g></svg>